<!--?xml version="1.0" standalone="no"?-->
              <svg id="sw-js-blob-svg" viewBox="0 0 100 100" xmlns="http://www.w3.org/2000/svg" version="1.1">
                    <defs> 
                        <linearGradient id="sw-gradient" x1="0" x2="1" y1="1" y2="0">
                            <stop id="stop1" stop-color="rgba(255, 190, 230, 1)" offset="0%"></stop>
                            <stop id="stop2" stop-color="rgba(252, 214, 244, 1)" offset="100%"></stop>
                        </linearGradient>
                    </defs>
                <path fill="url(#sw-gradient)" d="M24.4,-28.8C32,-28.2,38.6,-21.4,39.1,-14.1C39.7,-6.7,34.1,1.3,30.9,9.6C27.6,17.9,26.5,26.5,21.8,31.4C17,36.4,8.5,37.6,0.7,36.6C-7,35.6,-14,32.3,-19.8,27.7C-25.6,23.1,-30.2,17.2,-34.6,9.8C-39,2.4,-43.3,-6.5,-40.3,-12.3C-37.4,-18.2,-27.3,-20.9,-19.4,-21.4C-11.4,-22,-5.7,-20.3,1.4,-22.2C8.4,-24.1,16.9,-29.5,24.4,-28.8Z" width="100%" height="100%" transform="translate(50 50)" stroke-width="0" style="transition: all 0.3s ease 0s;" stroke="url(#sw-gradient)"></path>
              </svg>